<svg id="Cart" xmlns="http://www.w3.org/2000/svg" width="31.902" height="26.667" viewBox="0 0 31.902 26.667">
  <path id="Path_4" data-name="Path 4" d="M78.178,52.635a3.062,3.062,0,0,0-3-2.635h-3.9a.556.556,0,1,0,0,1.112h3.9a1.967,1.967,0,0,1,1.9,1.71l3.265,20.515a1.383,1.383,0,0,0,1.357,1.2h.842a2.608,2.608,0,0,0,5.127,0h6.666A2.617,2.617,0,0,0,96.9,76.667a2.716,2.716,0,1,0-2.576-3.241H87.683a2.61,2.61,0,0,0-5.152,0h-.814a.277.277,0,0,1-.272-.243s0,0,0,0l-.594-3.719H97.433a2.731,2.731,0,0,0,2.665-2.13L102.614,56.4a.58.58,0,0,0-.107-.482.568.568,0,0,0-.435-.222H78.666Z" transform="translate(-70.726 -50)" fill="#3fa9f5"/>
</svg>
