<svg xmlns="http://www.w3.org/2000/svg" width="12.003" height="14.001" viewBox="0 0 12.003 14.001"><defs><style>.a{fill:#fe4141;}</style></defs><path class="a" d="M10.333,1H7.666a.667.667,0,0,0,0,1.333h2.667a.667.667,0,1,0,0-1.333ZM9,9.667A.669.669,0,0,0,9.666,9V6.334a.667.667,0,1,0-1.333,0V9A.669.669,0,0,0,9,9.667ZM13.687,5.26l.5-.5a.662.662,0,0,0,0-.933L14.18,3.82a.662.662,0,0,0-.933,0l-.5.5A5.975,5.975,0,0,0,9,3a6.067,6.067,0,0,0-6,5.84A6,6,0,1,0,13.687,5.26ZM9,13.668A4.667,4.667,0,1,1,13.667,9,4.664,4.664,0,0,1,9,13.668Z" transform="translate(-2.997 -1)"/></svg>