<svg xmlns="http://www.w3.org/2000/svg" xmlns:xlink="http://www.w3.org/1999/xlink" width="88" height="88" viewBox="0 0 88 88"><defs><style>.a{fill:#3fa9f5;}.b,.c{fill:#fff;}.b{fill-rule:evenodd;}.d{filter:url(#a);}</style><filter id="a" x="0" y="0" width="88" height="88" filterUnits="userSpaceOnUse"><feOffset dx="-4" dy="5" input="SourceAlpha"/><feGaussianBlur stdDeviation="4" result="b"/><feFlood flood-color="#16a3ea" flood-opacity="0.2"/><feComposite operator="in" in2="b"/><feComposite in="SourceGraphic"/></filter></defs><g transform="translate(-266.047 -621.047)"><g class="d" transform="matrix(1, 0, 0, 1, 266.05, 621.05)"><rect class="a" width="64" height="64" rx="32" transform="translate(16 7)"/></g><g transform="translate(300.175 647.906)"><path class="b" d="M11.522,0A6.062,6.062,0,1,1,5.46,6.062,6.066,6.066,0,0,1,11.522,0Zm11.5,22.889a.614.614,0,0,1-.584.76H.6a.592.592,0,0,1-.584-.716C1.064,17.5,6.118,13.95,11.522,13.95,16.9,13.95,21.952,17.47,23.018,22.889Z" transform="translate(0)"/><path class="c" d="M4.591-4.081A.572.572,0,0,1,5-3.918a.527.527,0,0,1,.172.4.572.572,0,0,1-.163.407.548.548,0,0,1-.416.172H1.316V.316a.564.564,0,0,1-.163.416.541.541,0,0,1-.4.163.527.527,0,0,1-.4-.172A.572.572,0,0,1,.194.316V-2.941H-3.081a.556.556,0,0,1-.407-.172A.556.556,0,0,1-3.66-3.52a.527.527,0,0,1,.172-.4.572.572,0,0,1,.407-.163H.194V-7.338a.6.6,0,0,1,.163-.425.527.527,0,0,1,.4-.172.527.527,0,0,1,.4.172.6.6,0,0,1,.163.425v3.257Z" transform="translate(22.13 14.152)"/></g></g></svg>