<svg id="Home" xmlns="http://www.w3.org/2000/svg" width="25.115" height="26.299" viewBox="0 0 25.115 26.299">
  <path id="Path_11" data-name="Path 11" d="M29.885,16.323,18.434,4.871a1.145,1.145,0,0,0-1.6,0L5.379,16.323a1.145,1.145,0,0,0,.756,1.924h1.4V29.7a1.145,1.145,0,0,0,1.145,1.145H15.09V23.159a1.145,1.145,0,0,1,1.145-1.145h2.771a1.145,1.145,0,0,1,1.145,1.145v7.672h6.413a1.145,1.145,0,0,0,1.145-1.145V18.235h1.454a1.145,1.145,0,0,0,.721-1.912Z" transform="translate(-5.071 -4.544)" fill="#3fa9f5"/>
</svg>
