<svg id="Merchant" xmlns="http://www.w3.org/2000/svg" width="26" height="26" viewBox="0 0 26 26">
  <path id="Path_1641" data-name="Path 1641" d="M26,7.741,23.026,1.8A3.233,3.233,0,0,0,20.119,0H5.877A3.231,3.231,0,0,0,2.97,1.8L0,7.742V13H1.625V24.375A1.625,1.625,0,0,0,3.25,26h19.5a1.625,1.625,0,0,0,1.625-1.625V13H26ZM21.125,22.75H19.5v-6.5H14.625v6.5H4.875V13h16.25Z" transform="translate(0)" fill="#3fa9f5"/>
  <path id="Path_1642" data-name="Path 1642" d="M0,0H3V3H0Z" transform="translate(7.077 15.923)" fill="#3fa9f5"/>
</svg>
