<svg xmlns="http://www.w3.org/2000/svg" xmlns:xlink="http://www.w3.org/1999/xlink" width="73" height="73" viewBox="0 0 73 73"><defs><style>.a{fill:#fa0;}.b{fill:none;}.c{fill:#fff;}.d{filter:url(#a);}</style><filter id="a" x="0" y="0" width="73" height="73" filterUnits="userSpaceOnUse"><feOffset dx="-4" dy="5" input="SourceAlpha"/><feGaussianBlur stdDeviation="4" result="b"/><feFlood flood-color="#fa0" flood-opacity="0.2"/><feComposite operator="in" in2="b"/><feComposite in="SourceGraphic"/></filter></defs><g transform="translate(16.398 7.398)"><g class="d" transform="matrix(1, 0, 0, 1, -16.4, -7.4)"><rect class="a" width="49" height="49" rx="24.5" transform="translate(16 7)"/></g><g transform="translate(10.746 14.358)"><rect class="b" width="0.868" height="1.122" transform="translate(6.819 9.216)"/><rect class="b" width="0.868" height="1.123" transform="translate(6.819 11.46)"/><rect class="b" width="0.868" height="1.122" transform="translate(6.819 6.972)"/><rect class="b" width="0.868" height="1.122" transform="translate(6.819 13.705)"/><rect class="b" width="0.868" height="1.122" transform="translate(6.819 15.949)"/><rect class="b" width="0.868" height="1.123" transform="translate(6.819 4.727)"/><rect class="b" width="0.868" height="0.578" transform="translate(6.819 18.193)"/><path class="b" d="M223.251,177.34l-4.791,7.668.957.5,4.791-7.668Z" transform="translate(-205.882 -172.122)"/><path class="b" d="M196.066,163.2a1.983,1.983,0,0,0,.559-1.442v-.521a2,2,0,0,0-.559-1.452,2.425,2.425,0,0,0-3.144,0,1.994,1.994,0,0,0-.563,1.446v.521a1.97,1.97,0,0,0,.566,1.442,2.11,2.11,0,0,0,1.577.573A2.067,2.067,0,0,0,196.066,163.2Zm-2.183-.785a1.01,1.01,0,0,1-.213-.657v-.521a1.05,1.05,0,0,1,.212-.663.726.726,0,0,1,.61-.273.738.738,0,0,1,.613.273,1.041,1.041,0,0,1,.216.663v.521a1.021,1.021,0,0,1-.212.657.726.726,0,0,1-.6.266A.755.755,0,0,1,193.883,162.418Zm5.3,2.322a2.1,2.1,0,0,0-1.57.578,1.982,1.982,0,0,0-.566,1.442v.521a1.978,1.978,0,0,0,.57,1.446,2.117,2.117,0,0,0,1.58.578,2.079,2.079,0,0,0,1.562-.573,1.994,1.994,0,0,0,.559-1.446v-.521a1.992,1.992,0,0,0-.562-1.446A2.1,2.1,0,0,0,199.186,164.739Zm.829,2.54a1.105,1.105,0,0,1-.189.677.732.732,0,0,1-.626.253.762.762,0,0,1-.61-.273.979.979,0,0,1-.231-.657v-.521a1.041,1.041,0,0,1,.212-.656.734.734,0,0,1,.617-.273.724.724,0,0,1,.614.275,1.024,1.024,0,0,1,.216.656Z" transform="translate(-181.292 -155.04)"/><rect class="b" width="0.868" height="1.122" transform="translate(6.819 2.483)"/><rect class="b" width="0.868" height="0.578" transform="translate(6.819 0.783)"/><path class="c" d="M220.507,183.647a.733.733,0,0,0-.617.273,1.041,1.041,0,0,0-.215.656v.521a.979.979,0,0,0,.231.657.762.762,0,0,0,.61.273.734.734,0,0,0,.626-.253,1.107,1.107,0,0,0,.189-.677v-.521a1.025,1.025,0,0,0-.211-.656A.74.74,0,0,0,220.507,183.647Zm-4.079-3.413a1.022,1.022,0,0,0,.212-.657v-.521a1.041,1.041,0,0,0-.216-.663.822.822,0,0,0-1.223,0,1.049,1.049,0,0,0-.21.665v.521a1.011,1.011,0,0,0,.216.657.75.75,0,0,0,.62.266A.73.73,0,0,0,216.427,180.234Z" transform="translate(-202.613 -172.857)"/><path class="c" d="M29.4,94.209a3.818,3.818,0,0,0-2.233-1.121V89.181a2.064,2.064,0,0,0-2.061-2.061H3.061A2.064,2.064,0,0,0,1,89.181v4.41a.434.434,0,0,0,.434.434,2.866,2.866,0,0,1,0,5.732.434.434,0,0,0-.434.428v4.407a2.064,2.064,0,0,0,2.061,2.061H25.105a2.064,2.064,0,0,0,2.061-2.061v-3.886a3.843,3.843,0,0,0,2.233-6.5ZM8.685,105.892H7.818v-.578h.868Zm0-1.7H7.818V103.07h.868Zm0-2.244H7.818v-1.122h.868Zm0-2.244H7.818V98.58h.868Zm0-2.245H7.818V96.337h.868Zm0-2.244H7.818V94.093h.868Zm0-2.244H7.818V91.847h.868Zm0-2.245H7.818V89.6h.868Zm0-2.244H7.818V87.9h.868Zm3.381,5.359V93.32a1.991,1.991,0,0,1,.563-1.446A2.085,2.085,0,0,1,14.2,91.3a2.093,2.093,0,0,1,1.577.578,2,2,0,0,1,.559,1.452v.521a1.984,1.984,0,0,1-.559,1.442,2.076,2.076,0,0,1-1.562.573,2.116,2.116,0,0,1-1.577-.573,1.976,1.976,0,0,1-.566-1.448Zm1.51,6.166,4.791-7.668.957.5-4.789,7.667Zm7.454-.648a1.979,1.979,0,0,1-.559,1.446,2.1,2.1,0,0,1-1.562.573,2.117,2.117,0,0,1-1.58-.578,1.978,1.978,0,0,1-.57-1.446v-.521a1.981,1.981,0,0,1,.566-1.442,2.09,2.09,0,0,1,1.57-.578,2.094,2.094,0,0,1,1.574.578,1.989,1.989,0,0,1,.562,1.446Z" transform="translate(-1 -87.12)"/></g></g></svg>