<svg xmlns="http://www.w3.org/2000/svg" xmlns:xlink="http://www.w3.org/1999/xlink" width="79" height="79" viewBox="0 0 79 79"><defs><style>.a{fill:#fff;}.b{fill:#3fa9f5;}.c{fill:#0095ff;}.d{filter:url(#a);}</style><filter id="a" x="0" y="0" width="79" height="79" filterUnits="userSpaceOnUse"><feOffset dy="3" input="SourceAlpha"/><feGaussianBlur stdDeviation="6.5" result="b"/><feFlood flood-opacity="0.051"/><feComposite operator="in" in2="b"/><feComposite in="SourceGraphic"/></filter></defs><g transform="translate(-297.5 -719.5)"><g class="d" transform="matrix(1, 0, 0, 1, 297.5, 719.5)"><rect class="a" width="40" height="40" rx="20" transform="translate(19.5 16.5)"/></g><g transform="translate(321.5 743.44)"><path class="b" d="M60.678,2.845c.116.116.1.544-.039,1.184-.942,4.416-7.222,19.374-8.445,20.6C50.758,26.063,49.68,15.4,49.68,15.4s.466-.621,1.213-1.582c1.1-1.446,2.844-3.679,4.552-5.756,2.766-2.262,5.261-4.485,5.261-5.125A.119.119,0,0,0,60.678,2.845Z" transform="translate(-36.254 -0.247)"/><path class="b" d="M24.424,2.6a.119.119,0,0,1,.029.087c0,.641-2.495,2.863-5.261,5.125-3.446,2.844-7.329,5.775-7.329,5.775A62.673,62.673,0,0,1,4.71,12.45c-1.543-.4-2.592-.864-2.077-1.378C4.02,9.684,23.113,1.792,24.385,2.579A.05.05,0,0,1,24.424,2.6Z" transform="translate(0 0)"/><path class="c" d="M64.7,2.845c.116.116.1.544-.039,1.184A48.3,48.3,0,0,1,60.482,8.5c-2.038,2.019-4.242,4.086-5.562,5.309,1.1-1.446,2.844-3.679,4.552-5.756,2.766-2.262,5.261-4.484,5.261-5.125A.119.119,0,0,0,64.7,2.845Z" transform="translate(-40.28 -0.247)"/></g></g></svg>