<svg xmlns="http://www.w3.org/2000/svg" width="18.001" height="18.001" viewBox="0 0 18.001 18.001"><defs><style>.a{fill:#fa0;}</style></defs><path class="a" d="M12.632,3.73a9,9,0,1,0,9,9A9.012,9.012,0,0,0,12.632,3.73Zm3.42,5.719a1.432,1.432,0,1,1-1.432,1.432A1.435,1.435,0,0,1,16.053,9.449Zm-6.84,0A1.432,1.432,0,1,1,7.78,10.881,1.433,1.433,0,0,1,9.212,9.449Zm8.91,5.157a.007.007,0,0,0,0,.006.007.007,0,0,1,0,0,0,0,0,0,1,0,0c-.01.016-.016.033-.029.049a.007.007,0,0,1,0,0,6.293,6.293,0,0,1-10.911,0,.177.177,0,0,1-.031-.055.206.206,0,0,1-.016-.08.221.221,0,0,1,.221-.221.217.217,0,0,1,.149.059s0,0,0,.006a.18.18,0,0,1,.051.07,6.288,6.288,0,0,0,10.158,0,.207.207,0,0,1,.051-.074,0,0,0,0,0,0,0h0a.212.212,0,0,1,.147-.059.22.22,0,0,1,.221.221.215.215,0,0,1-.014.072Z" transform="translate(-3.632 -3.73)"/></svg>