<svg xmlns="http://www.w3.org/2000/svg" width="100.876" height="39" viewBox="0 0 100.876 39"><defs><style>.a{fill:#fff;stroke:rgba(0,0,0,0);}</style></defs><path class="a" d="M-9.605-102.072h2.522q2.669,0,2.669,1.85a2.388,2.388,0,0,1-.946,2.007,4.19,4.19,0,0,1-2.606.725h-3.489l-.883,2.165q-3.216,7.882-9.395,7.882a7.626,7.626,0,0,1-5.391-2,6.535,6.535,0,0,1-2.154-5,6.945,6.945,0,0,1,1.04-3.668,7.6,7.6,0,0,1,2.848-2.722,12.332,12.332,0,0,1,5.99-1.24h4.519l.652-1.639a4.878,4.878,0,0,1-2.5.8,4.672,4.672,0,0,1-3.647-1.555,5.838,5.838,0,0,1-1.4-4.056,10.749,10.749,0,0,1,2.837-7.272,8.349,8.349,0,0,1,6.368-3.237A4.556,4.556,0,0,1-8.7-117.352a3.087,3.087,0,0,1,2.8-1.681,2.124,2.124,0,0,1,1.5.578,1.841,1.841,0,0,1,.62,1.4,6.035,6.035,0,0,1-.546,2Zm-2.732-6.305,1.7-4.162a2.446,2.446,0,0,0,.21-.862,1.27,1.27,0,0,0-.557-1.051,2.254,2.254,0,0,0-1.4-.42,3.8,3.8,0,0,0-2.89,1.734,5.808,5.808,0,0,0-1.377,3.668q0,2.207,2.06,2.207Q-12.8-107.263-12.338-108.377ZM-16.751-97.49h-3.636a4.723,4.723,0,0,0-2.932.8,2.671,2.671,0,0,0-1.04,2.249,2.256,2.256,0,0,0,.715,1.681,2.436,2.436,0,0,0,1.765.694,3.54,3.54,0,0,0,2.648-1.2A15.74,15.74,0,0,0-16.751-97.49Zm19.357-9.752H4.981q2.648,0,2.648,1.871a2.369,2.369,0,0,1-.935,2,4.226,4.226,0,0,1-2.617.715H.735a4.935,4.935,0,0,1-2.911-.757,2.4,2.4,0,0,1-1.061-2.06,4.882,4.882,0,0,1,.441-1.766l3.468-8.533.231-.588a3.259,3.259,0,0,1,3.111-2.375,2.177,2.177,0,0,1,1.524.589,1.847,1.847,0,0,1,.641,1.408,6.189,6.189,0,0,1-.567,2.06Zm2.774-18.2a2.818,2.818,0,0,1,2.07.851,2.818,2.818,0,0,1,.851,2.07,2.818,2.818,0,0,1-.851,2.07,2.818,2.818,0,0,1-2.07.851,2.818,2.818,0,0,1-2.07-.851,2.818,2.818,0,0,1-.851-2.07,2.818,2.818,0,0,1,.851-2.07A2.818,2.818,0,0,1,5.38-125.443Zm8.344,15.385L18.6-116.7l.378-.567a3.393,3.393,0,0,1,2.732-1.766,2.211,2.211,0,0,1,1.618.62,2.13,2.13,0,0,1,.631,1.587,4.907,4.907,0,0,1-1.261,2.69l-7.777,10.067a3.8,3.8,0,0,1-3.069,1.7,2.894,2.894,0,0,1-2.354-1.04,4.332,4.332,0,0,1-.862-2.848q0-.378.021-.609l.757-8.386a4.5,4.5,0,0,1,.914-2.6,2.589,2.589,0,0,1,2.07-.893,1.774,1.774,0,0,1,2,2.018,10.028,10.028,0,0,1-.084,1.009Zm14.187,1.24q0,1.576,2.375,1.576h6.242q2.648,0,2.648,1.871a2.369,2.369,0,0,1-.935,2,4.226,4.226,0,0,1-2.617.715H29.677a7.09,7.09,0,0,1-5.055-1.639,6.284,6.284,0,0,1-1.734-4.792,9.915,9.915,0,0,1,2.743-7,8.625,8.625,0,0,1,6.526-2.942,6.541,6.541,0,0,1,4.424,1.44,4.763,4.763,0,0,1,1.671,3.794,4.548,4.548,0,0,1-2.312,4.2,7.506,7.506,0,0,1-3.825.778Zm1.009-3.825h2.312q2.249,0,2.186-.988-.063-1.114-1.45-1.114A3.383,3.383,0,0,0,28.92-112.644Zm16.1,3.825q0,1.576,2.375,1.576h6.242q2.648,0,2.648,1.871a2.369,2.369,0,0,1-.935,2,4.225,4.225,0,0,1-2.617.715H46.785A7.09,7.09,0,0,1,41.73-104.3,6.284,6.284,0,0,1,40-109.092a9.915,9.915,0,0,1,2.743-7,8.625,8.625,0,0,1,6.526-2.942,6.541,6.541,0,0,1,4.424,1.44A4.763,4.763,0,0,1,55.36-113.8a4.548,4.548,0,0,1-2.312,4.2,7.506,7.506,0,0,1-3.825.778Zm1.009-3.825H48.34q2.249,0,2.186-.988-.063-1.114-1.45-1.114A3.383,3.383,0,0,0,46.029-112.644ZM64.083-113l-.4.967q-.925,2.081-2.627,2.081a2.28,2.28,0,0,1-1.545-.6,1.791,1.791,0,0,1-.683-1.377,4.726,4.726,0,0,1,.61-1.955l2.8-5.675q1.03-2.039,2.564-2.039a2.019,2.019,0,0,1,1.408.536,1.665,1.665,0,0,1,.589,1.272,5.535,5.535,0,0,1-.126.82,4.644,4.644,0,0,0-.084.82,4.685,4.685,0,0,0,.988,2.711l1.2,1.66A8.478,8.478,0,0,1,70.6-108.86a5.705,5.705,0,0,1-1.976,4.424A7.084,7.084,0,0,1,63.7-102.66H59.312q-2.669,0-2.669-1.85a2.388,2.388,0,0,1,.946-2.007,4.19,4.19,0,0,1,2.606-.725h2.438q2.921,0,2.921-2.123a4.1,4.1,0,0,0-.546-1.829Z" transform="translate(29.778 125.943)"/></svg>