<svg xmlns="http://www.w3.org/2000/svg" width="27.299" height="23.649" viewBox="0 0 27.299 23.649">
  <g id="Fab_Icon" data-name="Fab Icon" transform="translate(-300.178 -647.906)">
    <g id="Group_2452" data-name="Group 2452" transform="translate(300.175 647.906)">
      <path id="Path_1479" data-name="Path 1479" d="M11.522,0A6.062,6.062,0,1,1,5.46,6.062,6.062,6.062,0,0,1,11.522,0Zm11.5,22.889a.614.614,0,0,1-.584.76H.6a.592.592,0,0,1-.584-.716c1.048-5.433,6.1-8.983,11.506-8.983,5.378,0,10.43,3.52,11.5,8.939Z" fill="#fff" fill-rule="evenodd"/>
      <path id="Path_1480" data-name="Path 1480" d="M4.591-4.081A.572.572,0,0,1,5-3.918a.527.527,0,0,1,.172.4.572.572,0,0,1-.163.407.548.548,0,0,1-.416.172H1.316V.316a.564.564,0,0,1-.163.416.541.541,0,0,1-.4.163.527.527,0,0,1-.4-.172A.572.572,0,0,1,.194.316V-2.941H-3.081a.556.556,0,0,1-.407-.172A.556.556,0,0,1-3.66-3.52a.527.527,0,0,1,.172-.4.572.572,0,0,1,.407-.163H.194V-7.338a.6.6,0,0,1,.163-.425.527.527,0,0,1,.4-.172.527.527,0,0,1,.4.172.6.6,0,0,1,.163.425v3.257Z" transform="translate(22.13 14.152)" fill="#fff"/>
    </g>
  </g>
</svg>
