<svg xmlns="http://www.w3.org/2000/svg" width="28" height="28" viewBox="0 0 28 28"><defs><style>.a{fill:#fff;}.b{fill:none;opacity:0.87;}.c{fill:#8f93a2;}</style></defs><g transform="translate(-19 -61)"><circle class="a" cx="14" cy="14" r="14" transform="translate(19 61)"/><g transform="translate(21 63)"><path class="b" d="M0,0H24V24H0Z"/><g transform="translate(1.867 3.261)"><path class="c" d="M13.015,2.862h0a.815.815,0,0,0-1.155,0L6.438,8.284a.65.65,0,0,0,0,.92l5.422,5.422a.815.815,0,0,0,1.155,0h0a.815.815,0,0,0,0-1.155L8.291,8.741l4.73-4.73A.813.813,0,0,0,13.015,2.862Z" transform="translate(0)"/></g></g></g></svg>