<svg xmlns="http://www.w3.org/2000/svg" width="41.63" height="41.67" viewBox="0 0 41.63 41.67"><defs><style>.a{fill:#00acea;}.b{fill:#00efd1;}.c{fill:#083863;}</style></defs><g transform="translate(-92.31 -92.31)"><g transform="translate(93.582 93.582)"><path class="a" d="M141.4,121.852v0A19.543,19.543,0,0,1,121.856,141.4h0a19.543,19.543,0,0,1-19.542-19.541v0a19.543,19.543,0,0,1,19.541-19.542h0A19.543,19.543,0,0,1,141.4,121.851Zm-9.255-3.563-3-3.114-10.4,10.017-4.532-4.362-3,3.114,7.532,7.251Z" transform="translate(-102.31 -102.31)"/><path class="b" d="M190.267,203.48l3,3.114-13.4,12.906-7.532-7.251,3-3.114,4.532,4.362Z" transform="translate(-163.435 -190.615)"/></g><g transform="translate(92.31 92.31)"><path class="c" d="M182.456,193.87a1.272,1.272,0,0,0-1.8-.034L171.143,203l-3.65-3.513a1.272,1.272,0,0,0-1.8.034l-3,3.114a1.272,1.272,0,0,0,.034,1.8l7.532,7.251a1.272,1.272,0,0,0,1.764,0l13.4-12.906a1.272,1.272,0,0,0,.033-1.8Zm-11.312,15.137-5.733-5.519,1.235-1.282,3.616,3.48a1.272,1.272,0,0,0,1.764,0l9.481-9.134,1.235,1.282Z" transform="translate(-153.436 -180.616)"/><path class="c" d="M113.124,92.31a20.835,20.835,0,0,0,0,41.67h0a20.835,20.835,0,0,0,0-41.67Zm0,39.127h0A18.287,18.287,0,1,1,131.4,113.151,18.309,18.309,0,0,1,113.124,131.437Z" transform="translate(-92.31 -92.31)"/></g></g></svg>