<svg xmlns="http://www.w3.org/2000/svg" width="18" height="20" viewBox="0 0 18 20"><defs><style>.a{fill:#3b3b3b;}</style></defs><path class="a" d="M.007,6.772A5.307,5.307,0,0,1,.844,3.628L1,3.4l.013-.012.108-.127h0l.113-.129.013-.013a4.1,4.1,0,0,1,.714-.583l.073-.046h0l.073-.043.172-.1c.069-.033.145-.072.214-.105.051-.02.1-.045.152-.065.1-.04.2-.079.3-.112a.518.518,0,0,1,.107-.039l.041-.016h0l.045-.016A7.236,7.236,0,0,1,4.55,1.717l-.05.006V.728a.72.72,0,1,1,1.44,0V3.872a.72.72,0,1,1-1.44,0V3.145A4.741,4.741,0,0,0,3.124,3.5,3.043,3.043,0,0,0,1.4,6.521l0,.248v.387H16.608v-.4a4.411,4.411,0,0,0-.418-2.066,2.633,2.633,0,0,0-1.322-1.207,4.584,4.584,0,0,0-1.119-.321l-.25-.03v.733a.72.72,0,0,1-1.44,0V3.081H5.947V1.651H12.06V.724A.72.72,0,0,1,13.5.713v1a6.946,6.946,0,0,1,1.037.183l.339.1a.563.563,0,0,1,.086.026c.038.013.069.027.107.039.1.033.194.072.291.112.056.02.107.045.151.065.075.033.153.072.214.105s.124.069.178.1.094.062.139.089a4.332,4.332,0,0,1,.551.423l.168.16.008.013.118.125h0L17,3.383,17,3.4A5.3,5.3,0,0,1,18,6.49l-.007.279v.387H18V14.91C18,18.292,16.112,20,12.369,20H5.622C1.888,20,0,18.292,0,14.91H0V7.156H.007Zm13.109,7.474a.839.839,0,0,0-.833.85.85.85,0,0,0,.833.85.85.85,0,0,0,0-1.7ZM9,14.237a.854.854,0,0,0,0,1.708.84.84,0,0,0,.824-.859A.855.855,0,0,0,9,14.237Zm-4.12,0a.855.855,0,0,0,0,1.708.855.855,0,0,0,0-1.708Zm8.232-3.62a.85.85,0,1,0,.824.85A.832.832,0,0,0,13.116,10.617ZM9,10.608a.855.855,0,0,0,0,1.708.84.84,0,0,0,.824-.859A.849.849,0,0,0,9,10.608Zm-4.112,0a.847.847,0,0,0-.833.859.825.825,0,1,0,.833-.859Z" transform="translate(0 0)"/></svg>