<svg xmlns="http://www.w3.org/2000/svg" xmlns:xlink="http://www.w3.org/1999/xlink" width="19.123" height="12.214" viewBox="0 0 19.123 12.214"><defs><style>.a{clip-path:url(#a);}.b{fill:#c7463d;}.c{fill:#fff;}</style><clipPath id="a"><path d="M20.123,132.705a.882.882,0,0,1-.785.95H1.785a.882.882,0,0,1-.785-.95V122.391a.882.882,0,0,1,.785-.95H19.338a.882.882,0,0,1,.785.95Z" transform="translate(-1 -121.441)"/></clipPath></defs><g class="a" transform="translate(0 0)"><rect class="b" width="4.8" height="13.023" transform="translate(-0.037 -0.516)"/><rect class="b" width="4.8" height="13.023" transform="translate(14.361 -0.516)"/><rect class="c" width="9.599" height="13.023" transform="translate(4.762 -0.516)"/><path class="b" d="M159.75,173.533l-.655,1.479c-.074.161-.207.146-.341.056l-.474-.3.353,2.271c.074.415-.164.415-.282.236l-.827-1.121-.134.569a.162.162,0,0,1-.186.135l-1.046-.266.275,1.209c.059.269.1.381-.059.451l-.373.212,1.8,1.771a.322.322,0,0,1,.082.3l-.158.626c.62-.086,1.176-.217,1.8-.3.055-.007.146.1.146.179l-.082,2.294h.3l-.047-2.289c0-.077.083-.191.138-.184.621.08,1.176.21,1.8.3l-.158-.626a.321.321,0,0,1,.082-.3l1.8-1.771-.373-.212c-.164-.071-.118-.182-.059-.451l.275-1.209-1.046.266a.162.162,0,0,1-.186-.135l-.134-.569-.827,1.121c-.118.179-.356.179-.282-.236l.353-2.271-.474.3c-.133.09-.266.1-.341-.056" transform="translate(-150.188 -171.169)"/></g></svg>