<svg xmlns="http://www.w3.org/2000/svg" width="20.859" height="13.037" viewBox="0 0 20.859 13.037"><defs><style>.a{fill:#8f93a2;}</style></defs><path class="a" d="M10.429,22.037A11.228,11.228,0,0,1,0,15.518,11.228,11.228,0,0,1,10.429,9a11.228,11.228,0,0,1,10.429,6.518A11.228,11.228,0,0,1,10.429,22.037Zm0-10.429a3.911,3.911,0,1,0,3.911,3.911A3.911,3.911,0,0,0,10.429,11.607Zm0,6.518a2.608,2.608,0,0,1-2.607-2.607h2.607L8.586,13.675a2.607,2.607,0,1,1,1.843,4.451Z" transform="translate(0 -9)"/></svg>