<svg xmlns="http://www.w3.org/2000/svg" width="24.945" height="26" viewBox="0 0 24.945 26">
  <g id="market-store_un_selected" data-name="market-store un selected" transform="translate(0)">
    <path id="Path_1645" data-name="Path 1645" d="M33.921,198.783h-.528V185.789h0a3.1,3.1,0,0,1-1.773-.568,3.083,3.083,0,0,1-1.785.568,3.047,3.047,0,0,1-.4-.032v9.666a1,1,0,0,1-1,1H24.85v-2.738l1.266,2.112a.8.8,0,1,0,1.369-.821l-2.544-4.247a.789.789,0,0,0-.73-.378H21.245a.792.792,0,0,0-.741.378l-2.544,4.247a.8.8,0,1,0,1.369.821l1.274-2.126v2.751H17a1,1,0,0,1-1-1v-9.666a3.044,3.044,0,0,1-.4.032,3.14,3.14,0,0,1-.609-.06,3.084,3.084,0,0,1-1.176-.507,3.1,3.1,0,0,1-1.772.568h0v12.995h-.528a1.251,1.251,0,0,0,0,2.5h22.4a1.251,1.251,0,1,0,0-2.5Z" transform="translate(-10.274 -175.285)" fill="#8f93a2"/>
    <path id="Path_1646" data-name="Path 1646" d="M212.977,197.226a1.92,1.92,0,1,0,1.664,1.9A1.8,1.8,0,0,0,212.977,197.226Z" transform="translate(-200.529 -186.646)" fill="#8f93a2"/>
    <path id="Path_1647" data-name="Path 1647" d="M11.535,9.1a1.778,1.778,0,0,0,2.213-1.2l.094-.313a1.774,1.774,0,0,0,3.5.151l.043-.217a1.775,1.775,0,0,0,1.593,1.64c.06.006.12.008.179.008a1.778,1.778,0,0,0,1.767-1.6l.013-.132a1.775,1.775,0,0,0,3.548,0l.013.132a1.779,1.779,0,0,0,1.767,1.6,1.348,1.348,0,0,0,.179-.008,1.775,1.775,0,0,0,1.593-1.64l.043.217a1.773,1.773,0,0,0,3.5-.151l.094.313a1.779,1.779,0,0,0,1.7,1.27,1.8,1.8,0,0,0,.51-.074,1.779,1.779,0,0,0,1.2-2.213l-1.6-5.372A2.116,2.116,0,0,0,31.456,0H13.972a2.116,2.116,0,0,0-2.028,1.511l-1.6,5.372A1.779,1.779,0,0,0,11.535,9.1Z" transform="translate(-10.265)" fill="#8f93a2"/>
  </g>
</svg>
