<svg xmlns="http://www.w3.org/2000/svg" width="12.19" height="16" viewBox="0 0 12.19 16"><defs><style>.a{fill:#3b3b3b;}</style></defs><path class="a" d="M18.667,7.333H17.9V5.81a3.81,3.81,0,1,0-7.619,0V7.333H9.524A1.523,1.523,0,0,0,8,8.857v7.619A1.523,1.523,0,0,0,9.524,18h9.143a1.523,1.523,0,0,0,1.524-1.524V8.857A1.523,1.523,0,0,0,18.667,7.333ZM14.1,14.19a1.524,1.524,0,1,1,1.524-1.524A1.523,1.523,0,0,1,14.1,14.19Zm2.362-6.857H11.733V5.81a2.362,2.362,0,0,1,4.724,0Z" transform="translate(-8 -2)"/></svg>